<?xml version="1.0" encoding="utf-8"?>
<!-- Generator: Adobe Illustrator 22.0.1, SVG Export Plug-In . SVG Version: 6.00 Build 0)  -->
<svg version="1.1" id="Capa_1" xmlns="http://www.w3.org/2000/svg" xmlns:xlink="http://www.w3.org/1999/xlink" x="0px" y="0px"
	 viewBox="0 0 1920 1080" style="enable-background:new 0 0 1920 1080;" xml:space="preserve">
<style type="text/css">
	.st0{fill:#F1F1F1;}
	.st1{fill:#3F3D56;}
	.st2{opacity:0.1;enable-background:new    ;}
	.st3{fill:#009F5E;}
	.st4{fill:#157849;}
	.st5{fill:#A8A8A8;}
	.st6{opacity:0.2;enable-background:new    ;}
	.st7{fill:#FFB9B9;}
	.st8{fill:#D0CDE1;}
	.st9{fill:#2F2E41;}
	.st10{fill:#A0616A;}
	.st11{fill:#0051B4;}
	.st12{fill:#0A8DFF;}
	.st13{fill:#575A89;}
</style>
<path class="st0" d="M1448.1,432.9C1386.9,192.2,1175.3,18.4,927,11.4C795.7,7.7,657.6,51.2,557,203.6
	c-179.8,272.4,11,460.6,144.1,550c64.3,43.3,122.2,95.4,172.1,154.7c89.9,106.6,262.8,239.2,468.7,31.5
	C1491.1,789.3,1488.9,593.3,1448.1,432.9z"/>
<path class="st1" d="M1644,974.4c0,21.2-311.8,94.7-696.5,94.7S251,995.6,251,974.4c0-21.2,311.8,17.9,696.5,17.9
	S1644,953.2,1644,974.4z"/>
<path class="st2" d="M1644,974.4c0,21.2-311.8,94.7-696.5,94.7S251,995.6,251,974.4c0-21.2,311.8,17.9,696.5,17.9
	S1644,953.2,1644,974.4z"/>
<ellipse class="st1" cx="947.5" cy="974.4" rx="696.5" ry="38.4"/>
<path class="st3" d="M1061.1,789.6c0,82,51.4,148.3,115,148.3"/>
<path class="st4" d="M1176,937.8c0-82.9,57.4-150,128.3-150"/>
<path class="st4" d="M1102.7,797c0,77.9,32.8,140.9,73.3,140.9"/>
<path class="st3" d="M1176,937.8c0-105.9,66.3-191.6,148.3-191.6"/>
<path class="st5" d="M1151.8,938.9c0,0,16.3-0.5,21.2-4c4.9-3.5,25.1-7.7,26.3-2.1c1.2,5.6,24.5,27.9,6.1,28.1
	c-18.4,0.1-42.8-2.9-47.7-5.9S1151.8,938.9,1151.8,938.9z"/>
<path class="st6" d="M1205.8,958.9c-18.4,0.1-42.8-2.9-47.7-5.9c-3.7-2.3-5.2-10.4-5.7-14.2c-0.3,0-0.5,0-0.5,0s1,13.1,5.9,16.1
	c4.9,3,29.3,6,47.7,5.9c5.3,0,7.1-1.9,7-4.7C1211.8,957.8,1209.7,958.9,1205.8,958.9z"/>
<path class="st7" d="M1359.2,501.4c0,0-39.4-29.9-42.4-19c-3,11,28.9,35.9,28.9,35.9L1359.2,501.4z"/>
<path class="st2" d="M1359.2,501.4c0,0-39.4-29.9-42.4-19c-3,11,28.9,35.9,28.9,35.9L1359.2,501.4z"/>
<path class="st8" d="M1489.3,406.6c0,0-46.9,83.8-47.9,95.7c-1,12-1,13-5,12s-58.8-7-63.8-5c-5,2-15-12-15-12s-18.9,18.9-15,22.9
	s16,6,18,11s5,10,14,9c9-1,69.8,16,77.8,13c8-3,10-8,14-8c4,0,12-4,12-5s27.9-53.9,27.9-53.9S1539.2,414.6,1489.3,406.6z"/>
<path class="st2" d="M1489.3,406.6c0,0-46.9,83.8-47.9,95.7c-1,12-1,13-5,12s-58.8-7-63.8-5c-5,2-15-12-15-12s-18.9,18.9-15,22.9
	s16,6,18,11s5,10,14,9c9-1,69.8,16,77.8,13c8-3,10-8,14-8c4,0,12-4,12-5s27.9-53.9,27.9-53.9S1539.2,414.6,1489.3,406.6z"/>
<path class="st9" d="M1421.3,351.4c-0.4,5.3-0.3,10.6,0.3,15.9c1.5,11.5,6.8,23.4,1.8,34.1c-1.8,3.9-4.9,7.3-6.5,11.2
	c-3.5,8.3-0.3,17.5-0.8,26.4c-0.6,11.4-7.9,22.5-19,28.7c18.9,0.6,36.9-8.8,48.8-21.5c11.9-12.7,18.5-28.5,23.5-44.3
	c2.6-7.4,4.2-15.1,4.9-22.9c0.4-4.5-0.1-9-1.5-13.3c-1.7-4.2-4-8.1-6.8-11.7c-3-4.2-6-8.5-10.4-11.6c-5.4-3.8-15.8-7.7-23-7.1
	C1423.5,335.9,1421.7,345.3,1421.3,351.4z"/>
<path class="st7" d="M1450.4,382.7c0,0,11,38.9,2,49.9c-9,11,53.9-5,53.9-5s-30.9-30.9-16-50.9L1450.4,382.7z"/>
<path class="st2" d="M1450.4,382.7c0,0,11,38.9,2,49.9c-9,11,53.9-5,53.9-5s-30.9-30.9-16-50.9L1450.4,382.7z"/>
<polygon class="st7" points="1414.5,901.3 1414.5,930.2 1429.5,948.2 1442.4,942.2 1438.4,900.3 "/>
<path class="st9" d="M1420.5,928.2c0,0-4-14-11-4c-7,10-14,31.9-18,32.9c-4,1-31.9,31.9-4,31.9c27.9,0,36.9-13,36.9-13
	s27.9-11,27.9-13c0-2-4-38.9-6-38.9c-2,0-3,7-8,7S1420.5,928.2,1420.5,928.2z"/>
<polygon class="st7" points="1481.3,906.3 1480.3,933.2 1504.3,943.2 1504.3,904.3 "/>
<path class="st9" d="M1507.3,933.2c0,0-13-14-19.9-11c-3.5,1.4-6.8,3.1-10,5c0,0-4,13-6,23.9c-2,11-3,16-5,19.9c-2,4-4,18.9,16,20.9
	c19.9,2,25.9-9,25.9-9l5-25.9C1513.2,957.1,1511.2,933.2,1507.3,933.2z"/>
<path class="st9" d="M1427.5,619c0,0-28.9,64.8-24.9,123.7c0,0-10,22.9-4,58.8c6,35.9,14,107.7,14,107.7s26.9,3,28.9-2
	c0,0,2-49.9,4-51.9s-1-47.9-4-56.8c-3-9,27.9-97.7,27.9-97.7l-8-110.7L1427.5,619z"/>
<path class="st2" d="M1427.5,619c0,0-28.9,64.8-24.9,123.7c0,0-10,22.9-4,58.8c6,35.9,14,107.7,14,107.7s26.9,3,28.9-2
	c0,0,2-49.9,4-51.9s-1-47.9-4-56.8c-3-9,27.9-97.7,27.9-97.7l-8-110.7L1427.5,619z"/>
<path class="st9" d="M1419.5,615.1l18.9,40.9c0,0,9,92.8,14,104.7c0,0,2,33.9,11,44.9s16,107.7,16,107.7s24.9,7,26.9,0
	s8-54.9,8-54.9s2-40.9-9-67.8s13-123.7,13-123.7s24.9-46.9-11-84.8L1419.5,615.1z"/>
<circle class="st7" cx="1472.3" cy="353.7" r="40.9"/>
<path class="st8" d="M1510.2,415.6c0,0-42.9,0-48.9,5c-3.1,2.9-7.9,2.9-11,0c0,0-15,1-18.9,13c-4,12-16,27.9-16,27.9s-18,13-8,46.9
	s2,88.8,2,88.8s-8,12,0,17c8,5,11,7,10,11c-1,4,90.8-32.9,90.8-39.9s-2-13,0-16c2-3,4-8,2-13c-2-5,2-6,1-11c-1-5,5-41.9,9-57.8
	C1526.2,471.4,1525.2,416.6,1510.2,415.6z"/>
<path class="st7" d="M1359.2,513.3c0,0-39.4-29.9-42.4-19c-3,11,28.9,35.9,28.9,35.9L1359.2,513.3z"/>
<path class="st8" d="M1489.3,420.6c0,0-46.9,83.8-47.9,95.7c-1,12-1,13-5,12c-4-1-58.8-7-63.8-5c-5,2-15-12-15-12
	s-18.9,18.9-15,22.9c4,4,16,6,18,11c2,5,5,10,14,9c9-1,69.8,16,77.8,13c8-3,10-8,14-8c4,0,12-4,12-5s27.9-53.9,27.9-53.9
	S1539.2,428.5,1489.3,420.6z"/>
<path class="st9" d="M1452.1,379.9c-0.6-4-2.6-7.7-3.7-11.7c-1.7-6.4-0.7-13.2,2.8-18.8c5.9-9.5,17.4-13.7,25.4-21.4
	c0.2,3.9,2.9,7.3,5.9,9.8c3,2.5,6.5,4.6,9,7.6c2.5,3.2,4.2,6.8,5.3,10.7c1.6,4.5,2.3,9.2,2.1,14c-0.2,4.8-2.4,9.3-6.1,12.4
	c-3,2.4-7.2,3.7-8.6,7.2c-0.6,1.8-0.7,3.6-0.5,5.5c0.7,11,1.3,22.1-1.3,32.8c-2.6,10.7-8.9,21-18.8,25.7c8.2,0.6,16.5,1.1,24.4-0.9
	c7.9-2.1,15.5-7.2,18.2-14.9c1.3-3.8,1.5-8,3.4-11.6c4.8-9,18.2-9.4,24.8-17.2c2.6-3.1,3.9-7.2,4.8-11.1c5.5-23.4,1.6-48.2-6.8-70.7
	c-2.9-7.8-6.5-15.6-12.8-21c-5.3-4.6-12.1-7.2-18.8-9.4c-9.8-3.2-19.9-5.8-30.1-6.1c-4.5-0.3-8.9,0.3-13.2,1.5
	c-4.2,1.5-8.2,3.8-11.6,6.6c-16.1,12.5-27.1,32.6-25.6,52.9c0.9,12.3,6.1,24,12.8,34.3c2.3,3.6,7.9,11.4,13,9.1
	C1450.7,393.1,1452.7,384.2,1452.1,379.9z"/>
<ellipse class="st9" cx="515" cy="282.4" rx="43.1" ry="33.6"/>
<path class="st10" d="M522.3,513.8c0,0,38.8,2.6,45.7-2.6s36.2,6.9,38.8,13.8s-41.4,7.8-48.3,7.8c-6.9,0-39.6,10.3-39.6,10.3
	L522.3,513.8z"/>
<g>
	<g>
		<polygon class="st11" points="638,555.5 638,295 515.5,613.3 		"/>
		<polygon class="st12" points="638,295 638,555.5 760.5,613.3 		"/>
		<polygon class="st12" points="638,555.4 638,457.5 592,577.2 		"/>
		<polygon class="st11" points="638,457.5 638,555.4 684.1,577.2 		"/>
	</g>
	<g>
		<path class="st11" d="M803.4,538.7L803.4,538.7c-10.9,0-20.7-6.7-24.7-16.9l-9.3-24.1l-6.5-16.9L755,460l-13.4-34.8l-21.3,55.5
			H735c10.9,0,20.7,6.7,24.7,16.9l0,0h-45.9l-9.3,24.1c-3.9,10.2-13.7,16.9-24.7,16.9h0l15.8-41l6.5-16.9l25.1-65.4
			c2.3-5.9,8-9.9,14.3-9.9h0c6.4,0,12.1,3.9,14.3,9.9l25.1,65.4l6.5,16.9L803.4,538.7z"/>
		<path class="st11" d="M910.9,405.5c0,9.4-7.6,16.9-16.9,16.9H866v107.8c0,4.7-3.8,8.5-8.5,8.5c-2.3,0-4.5-0.9-6-2.5
			c-1.5-1.5-2.5-3.7-2.5-6V422.4h-28.8c-9.4,0-16.9-7.6-16.9-16.9H910.9z"/>
		<g>
			<path class="st11" d="M960.9,405.5v116.3c0,9.4-7.6,16.9-16.9,16.9V422.4C944,413.1,951.6,405.5,960.9,405.5z"/>
			<path class="st11" d="M1030.2,521.7c0,4.7-2.7,8.9-7,12c-4.3,3.1-10.4,5-17,5h-44.7c0-9.4,10.8-16.9,24-16.9H1030.2z"/>
		</g>
		<path class="st11" d="M1182.9,538.7L1182.9,538.7c-10.9,0-20.7-6.7-24.7-16.9l-9.3-24.1l-6.5-16.9l-7.9-20.7l-13.4-34.8
			l-21.3,55.5h14.7c10.9,0,20.7,6.7,24.7,16.9l0,0h-45.9l-9.3,24.1c-3.9,10.2-13.7,16.9-24.7,16.9l0,0l15.8-41l6.5-16.9l25.1-65.4
			c2.3-5.9,8-9.9,14.3-9.9l0,0c6.4,0,12.1,3.9,14.3,9.9l25.1,65.4l6.5,16.9L1182.9,538.7z"/>
		<g>
			<path class="st11" d="M1229.2,442.9L1229.2,442.9c0,11.3,9.2,20.5,20.5,20.5h0c7.9,0,14.3,6.4,14.3,14.3v2.7h-14.3
				c-20.7,0-37.5-16.8-37.5-37.5v0c0-20.7,16.8-37.5,37.5-37.5h70.2l0,0c0,9.4-7.6,16.9-16.9,16.9h-53.2
				C1238.4,422.4,1229.2,431.6,1229.2,442.9z"/>
			<path class="st11" d="M1319.9,501.1L1319.9,501.1c0,20.8-16.8,37.6-37.6,37.6h-70l0,0c0-9.4,7.6-16.9,16.9-16.9h53.1
				c11.4,0,20.7-9.3,20.7-20.7v0c0-11.4-9.3-20.7-20.7-20.7l0,0c-7.8,0-14.1-6.3-14.1-14.1v-2.8h14.1
				C1303,463.5,1319.9,480.3,1319.9,501.1z"/>
		</g>
	</g>
</g>
<path class="st9" d="M442.5,915.3c0,0-18.1,45.6-8.6,51.1s108.4,1.6,108.4,1.6s16.5-10.2-2.4-17.3c0,0-15.7-0.8-25.9-7.1
	c-10.2-6.3-22-18.1-22-18.1s-0.8-17.3-7.1-13.4c-3.8,2.5-6.4,6.5-7.1,11L442.5,915.3z"/>
<path class="st2" d="M442.5,915.3c0,0-18.1,45.6-8.6,51.1s108.4,1.6,108.4,1.6s16.5-10.2-2.4-17.3c0,0-15.7-0.8-25.9-7.1
	c-10.2-6.3-22-18.1-22-18.1s-0.8-17.3-7.1-13.4c-3.8,2.5-6.4,6.5-7.1,11L442.5,915.3z"/>
<path class="st9" d="M414.6,929.2c0,0-19.8,50-9.5,56c10.3,6,118.9,1.7,118.9,1.7s18.1-11.2-2.6-19c0,0-17.2-0.9-28.4-7.8
	c-11.2-6.9-24.1-19.8-24.1-19.8s-0.9-19-7.8-14.7c-4.2,2.7-7,7.1-7.8,12.1L414.6,929.2z"/>
<path class="st9" d="M516.3,612.1l-12.1,108.6c0,0-4.3,51.7-17.2,62.9c0,0,0,16.4-4.3,21.5l-6,68.1c0,0,8.6,25,7.8,29.3
	c-0.9,4.3,3.4,18.1,2.6,19.8c-0.9,1.7-41.4,0-41.4,0l8.6-138.8L481,590.5L516.3,612.1z"/>
<path class="st2" d="M516.3,612.1l-12.1,108.6c0,0-4.3,51.7-17.2,62.9c0,0,0,16.4-4.3,21.5l-6,68.1c0,0,8.6,25,7.8,29.3
	c-0.9,4.3,3.4,18.1,2.6,19.8c-0.9,1.7-41.4,0-41.4,0l8.6-138.8L481,590.5L516.3,612.1z"/>
<path class="st9" d="M494.8,608.6c0,0-9.5,88.8-13.8,107.7c-2.7,12.5-4.4,25.2-5.2,37.9c0,0-0.9,27.6-8.6,35.3
	c-4.6,4.5-7.1,10.8-6.9,17.2c0,0-7.8,87-3.4,97.4c4.3,10.3,8.6,19,4.3,25.9c-4.3,6.9-51.7,6.9-51.7,1.7s0-9.5-2.6-12.1
	c-2.6-2.6,0-19,0-19s-10.3-76.7-0.9-99.1c9.5-22.4,13.8-83.6,13.8-83.6s-6.9-69.8-15.5-81c-8.6-11.2,1.7-50.8,1.7-50.8L494.8,608.6z
	"/>
<path class="st10" d="M470.5,332.9c1,2.3,3.4,3.6,5.6,4.8c12.7,7,23.2,17.1,33.7,27.1c-2.6-8.8-2-18.3,1.6-26.7c1.2-2.9,2.9-6,2-9
	c-0.7-2.2-2.5-3.8-4.4-5.2c-4.3-3.3-8.7-6.3-13.3-9.1c-3.2-1.9-9.9-7.1-13.6-6.5c-0.2,5-0.3,9.5-2.5,14.2
	C479,323.5,470.9,333.8,470.5,332.9z"/>
<circle class="st10" cx="514.6" cy="308.7" r="35.3"/>
<path class="st13" d="M516.3,392.3c0,0,6-30.2-11.2-40.5c-17.2-10.3-37.1-22.4-37.1-22.4s-6-0.9-8.6,12.1c0,0-49.1,9.5-54.3,56
	c-5.2,46.5,3.4,114.6,3.4,114.6s-7.8,59.5-17.2,91.4c0,0-7.8,6.9,26.7-3.4s94.8,29.3,94.8,29.3s6-6,6-10.3s6.9-29.3,6.9-29.3
	s6-106,8.6-118.1C537,459.5,524.1,394,516.3,392.3z"/>
<path class="st9" d="M506.3,312.3c2.1-1.2,4.5-1.8,6.9-1.8c2.4,0,4.8-0.7,6.9-2c3.3-2.6,3.6-7.5,6-10.9c3.5-5,10.6-5.6,16.7-5.3
	c3.7,0.2,7.7,0.4,10.9-1.6c3.2-2.1,4.7-6,5.8-9.6c1.3-4.3,2.1-9.6-1.1-12.9c-2.2-2.2-5.7-2.7-8.1-4.6c-2.5-2-3.6-5.3-5-8.3
	c-1.6-3.6-4.1-6.7-7.2-9c-4.6-3.2-10.5-3.9-16.2-3.9s-11.3,0.8-16.9,0.1c-4.6-0.6-9.2-2.1-13.7-1.4c-5.8,0.9-10.6,5.3-13.5,10.4
	c-2.9,5.1-4.1,11-5.3,16.8l-3.2,15.7c-1,4.9-2,9.8-1.2,14.8c1.6,10.2,10.6,18.2,11.2,28.5c1.2-5.8,5.2-10.5,10.7-12.7
	c0.7-0.3,1.4-0.4,2.2-0.3c0.9,0.3,1.4,1.2,2,1.9c1.5,2,6.1,4.9,8.7,3.5C505.1,318.2,503.3,314.3,506.3,312.3z"/>
<path class="st10" d="M417.2,473.3c0,0-6,37.9,19,34.5c0,0,12.9-1.7,14.7,0c1.7,1.7,65.5-9.5,74.1-19c0,0,10.3-3.4,15.5,1.7
	s56.9,10.3,41.4-5.2c-15.5-15.5-39.6-19-39.6-19l-32.7,1.7c0,0-17.2,5.2-27.6,0c-10.3-5.2-39.6-3.4-39.6-3.4L417.2,473.3z"/>
<path class="st13" d="M452.5,353.5c0,0-38.8,4.3-38.8,60.3v71.5c0,0,21.5-9.5,25.9-8.6s21.5-11.2,21.5-11.2s19.8-46.5,18.1-59.5
	S478.4,355.2,452.5,353.5z"/>
<ellipse class="st9" cx="514.6" cy="286.7" rx="33.2" ry="17.2"/>
<ellipse class="st9" cx="483.6" cy="289.7" rx="11.6" ry="28.9"/>
<g>
	<path class="st11" d="M1359.4,402.3c-12.8,0-23.2,10.4-23.2,23.2s10.4,23.2,23.2,23.2c12.8,0,23.2-10.4,23.2-23.2
		S1372.2,402.3,1359.4,402.3z M1359.3,445c-10.7,0-19.4-8.7-19.4-19.4s8.7-19.4,19.4-19.4s19.4,8.7,19.4,19.4S1370,445,1359.3,445z"
		/>
	<path class="st11" d="M1375.2,432.5c-2.6,5.8-8.3,10-15,10.2c-10.3,0.4-18.4-7.8-17.9-18.1c0.5-9.1,8-16.2,17.2-16.2
		c6.9,0,12.9,4.1,15.6,9.9c0,0,0,0,0,0h-7.9c0,0,0,0,0,0c-2.1-2.2-5.1-3.5-8.4-3.2c-5.2,0.4-9.4,4.6-9.8,9.8
		c-0.4,6.1,4.5,11.2,10.5,11.2c3.2,0,6-1.4,8-3.6c0,0,0,0,0,0L1375.2,432.5C1375.1,432.5,1375.2,432.5,1375.2,432.5z"/>
</g>
<g>
</g>
<g>
</g>
<g>
</g>
<g>
</g>
<g>
</g>
<g>
</g>
<g>
</g>
<g>
</g>
<g>
</g>
<g>
</g>
<g>
</g>
<g>
</g>
<g>
</g>
<g>
</g>
<g>
</g>
</svg>
