<?xml version="1.0" encoding="utf-8"?>
<!-- Generator: Adobe Illustrator 22.0.1, SVG Export Plug-In . SVG Version: 6.00 Build 0)  -->
<svg version="1.1" id="Capa_1" xmlns="http://www.w3.org/2000/svg" xmlns:xlink="http://www.w3.org/1999/xlink" x="0px" y="0px"
	 viewBox="0 0 1672.8 672.2" style="enable-background:new 0 0 1672.8 672.2;" xml:space="preserve">
<style type="text/css">
	.st0{fill:#0051B4;}
	.st1{fill:#0A8DFF;}
</style>
<g>
	<polygon class="st0" points="258,545.7 258,7 4.7,665.2 	"/>
	<polygon class="st1" points="258,7 258,545.7 511.3,665.2 	"/>
	<polygon class="st1" points="258,545.6 258,343 162.8,590.5 	"/>
	<polygon class="st0" points="258,343 258,545.6 353.3,590.5 	"/>
</g>
<g>
	<path class="st0" d="M600,511L600,511c-22.6,0-42.9-13.9-51-35l-19.1-49.8l-13.5-35l-16.4-42.7l-27.7-71.9l-44.1,114.7h30.3
		c22.6,0,42.9,13.9,51,35v0h-94.8l-19.1,49.8c-8.1,21.1-28.4,35-51,35h0l32.6-84.9l13.5-35l52-135.2c4.7-12.3,16.5-20.4,29.7-20.4h0
		c13.2,0,24.9,8.1,29.7,20.4l52,135.2l13.5,35L600,511z"/>
	<path class="st0" d="M822.3,235.5c0,19.4-15.7,35-35,35h-57.8v222.9c0,9.7-7.8,17.5-17.5,17.5c-4.8,0-9.2-2-12.4-5.1
		c-3.2-3.2-5.1-7.6-5.1-12.4V270.5h-59.6c-19.4,0-35-15.7-35-35H822.3z"/>
	<g>
		<path class="st0" d="M925.7,235.5v240.4c0,19.4-15.7,35-35,35V270.5C890.7,251.2,906.4,235.5,925.7,235.5z"/>
		<path class="st0" d="M1069.1,475.9c0,9.7-5.6,18.4-14.6,24.8c-9,6.3-21.4,10.3-35.1,10.3H927c0-19.4,22.2-35,49.7-35H1069.1z"/>
	</g>
	<path class="st0" d="M1384.8,511L1384.8,511c-22.6,0-42.9-13.9-51-35l-19.1-49.8l-13.5-35l-16.4-42.7l-27.7-71.9L1213,391.1h30.3
		c22.6,0,42.9,13.9,51,35v0h-94.8l-19.1,49.8c-8.1,21.1-28.4,35-51,35h0l32.6-84.9l13.5-35l52-135.2c4.7-12.3,16.5-20.4,29.7-20.4
		l0,0c13.2,0,24.9,8.1,29.7,20.4l52,135.2l13.5,35L1384.8,511z"/>
	<g>
		<path class="st0" d="M1480.5,313L1480.5,313c0,23.4,19,42.4,42.4,42.4h0c16.3,0,29.5,13.2,29.5,29.5v5.5h-29.5
			c-42.8,0-77.5-34.7-77.5-77.5v0c0-42.8,34.7-77.5,77.5-77.5H1668v0c0,19.4-15.7,35-35,35h-110.1
			C1499.5,270.5,1480.5,289.5,1480.5,313z"/>
		<path class="st0" d="M1668,433.2L1668,433.2c0,43-34.8,77.8-77.8,77.8h-144.8v0c0-19.4,15.7-35,35-35h109.8
			c23.6,0,42.7-19.1,42.7-42.7v0c0-23.6-19.1-42.7-42.7-42.7h0c-16.1,0-29.2-13.1-29.2-29.2v-5.8h29.2
			C1633.2,355.4,1668,390.2,1668,433.2z"/>
	</g>
</g>
<g>
</g>
<g>
</g>
<g>
</g>
<g>
</g>
<g>
</g>
<g>
</g>
<g>
</g>
<g>
</g>
<g>
</g>
<g>
</g>
<g>
</g>
<g>
</g>
<g>
</g>
<g>
</g>
<g>
</g>
</svg>
